<?xml version="1.0" encoding="UTF-8" standalone="no"?>
<!-- Created with Inkscape (http://www.inkscape.org/) -->

<svg
   width="40"
   height="40"
   viewBox="0 0 10.583333 10.583333"
   version="1.1"
   id="svg995"
   inkscape:version="1.1.1 (3bf5ae0d25, 2021-09-20)"
   sodipodi:docname="int.svg"
   xmlns:inkscape="http://www.inkscape.org/namespaces/inkscape"
   xmlns:sodipodi="http://sodipodi.sourceforge.net/DTD/sodipodi-0.dtd"
   xmlns="http://www.w3.org/2000/svg"
   xmlns:svg="http://www.w3.org/2000/svg">
  <sodipodi:namedview
     id="namedview997"
     pagecolor="#ffffff"
     bordercolor="#666666"
     borderopacity="1.0"
     inkscape:pageshadow="2"
     inkscape:pageopacity="0.0"
     inkscape:pagecheckerboard="0"
     inkscape:document-units="mm"
     showgrid="false"
     width="40mm"
     units="px"
     inkscape:zoom="2.2948373"
     inkscape:cx="88.677312"
     inkscape:cy="-35.07874"
     inkscape:window-width="1920"
     inkscape:window-height="1017"
     inkscape:window-x="-8"
     inkscape:window-y="-8"
     inkscape:window-maximized="1"
     inkscape:current-layer="layer1" />
  <defs
     id="defs992" />
  <g
     inkscape:label="Слой 1"
     inkscape:groupmode="layer"
     id="layer1">
    <path
       d="m 7.4585827,6.4026508 c 0,0.33073 -0.09602,0.597165 -0.28784,0.778405 -0.192352,0.181504 -0.458787,0.277812 -0.778933,0.277812 h -2.176476 c -0.320146,0 -0.586846,-0.09631 -0.778933,-0.277812 -0.191823,-0.191823 -0.288396,-0.458523 -0.288396,-0.789253 v -2.18731 c 0,-0.320146 0.8636,-1.354667 1.055423,-1.546754 -0.927365,5.29e-4 -1.545696,0.619125 -1.545696,1.546754 v 2.187046 c 0,0.458787 0.149225,0.85381 0.44794,1.141677 0.288131,0.277283 0.672041,0.41619 1.109662,0.41619 h 2.176476 c 0.458523,0 0.842671,-0.14949 1.119955,-0.41619 0.288131,-0.277283 0.437647,-0.672042 0.437647,-1.130829 v -2.197894 c 0,-0.447939 -0.14949,-0.832114 -0.426773,-1.109398 -0.277283,-0.288131 -0.672571,-0.437356 -1.120246,-0.437356 h -2.198171 l -0.767821,0.76835 c 0.181504,-0.181504 0.458787,-0.277548 0.778933,-0.277548 h 2.197643 c 0.320145,0 0.586845,0.09604 0.778933,0.288396 0.181504,0.191823 0.28784,0.458523 0.28784,0.767821 v 2.197893 z m -0.757475,-2.166143 c 0.04135,0.0012 0.08252,-0.0059 0.1211,-0.02088 0.03858,-0.01499 0.07374,-0.03757 0.103425,-0.0664 0.02969,-0.02883 0.05326,-0.06332 0.0694,-0.101433 0.01611,-0.03811 0.02439,-0.07907 0.02439,-0.120449 0,-0.04138 -0.0083,-0.08234 -0.02439,-0.120449 -0.01614,-0.03811 -0.03971,-0.0726 -0.0694,-0.101433 -0.02969,-0.02883 -0.06485,-0.05141 -0.103425,-0.0664 -0.03858,-0.01499 -0.07975,-0.02209 -0.1211,-0.02088 -0.08043,0.0024 -0.156792,0.03596 -0.212857,0.09368 -0.05604,0.05772 -0.08742,0.13502 -0.08742,0.215485 0,0.08047 0.03138,0.157763 0.08742,0.215485 0.05606,0.05772 0.132424,0.09133 0.212857,0.09368 z m -1.397529,1.942041 c -0.231749,-10e-4 -0.453697,-0.09356 -0.617562,-0.257439 -0.163864,-0.163857 -0.256384,-0.385789 -0.257429,-0.617538 0.001,-0.231738 0.09356,-0.453683 0.257429,-0.617548 0.163865,-0.163864 0.385813,-0.256384 0.617562,-0.257429 0.231722,0.001 0.453681,0.09357 0.617537,0.257429 0.163857,0.163865 0.256381,0.38581 0.25744,0.617548 -0.0011,0.231696 -0.09369,0.453575 -0.257546,0.617379 -0.163856,0.163804 -0.385762,0.256302 -0.617431,0.257334 z m 0,-2.240491 c -0.746668,0 -1.365528,0.608012 -1.365528,1.365514 -5.03e-4,0.179467 0.0345,0.357241 0.102949,0.523134 0.06845,0.165894 0.169013,0.316627 0.29591,0.443521 0.126897,0.126895 0.277625,0.227463 0.443519,0.29591 0.165891,0.06845 0.343677,0.103426 0.52315,0.10295 0.757502,0 1.36525,-0.618861 1.36525,-1.36525 0,-0.747183 -0.618596,-1.365779 -1.36525,-1.365779 z"
       fill="#000000"
       id="path2"
       style="stroke-width:0.264583" />
  </g>
</svg>
