<?xml version="1.0" encoding="UTF-8" standalone="no"?>
<svg
   width="64pt"
   height="64pt"
   viewBox="0 0 22.577778 22.577778"
   version="1.1"
   id="svg831"
   inkscape:version="1.1.1 (1:1.1+202109281949+c3084ef5ed)"
   sodipodi:docname="21 - Bus.svg"
   inkscape:export-filename="/media/taufikramadhan/Data/Project Progress/1 - Carlos Project/012 - School And Education/Team/Adnan/DESEMBER/export extended line/svg/21 - Bus.png"
   inkscape:export-xdpi="576"
   inkscape:export-ydpi="576"
   xmlns:inkscape="http://www.inkscape.org/namespaces/inkscape"
   xmlns:sodipodi="http://sodipodi.sourceforge.net/DTD/sodipodi-0.dtd"
   xmlns="http://www.w3.org/2000/svg"
   xmlns:svg="http://www.w3.org/2000/svg"
   xmlns:rdf="http://www.w3.org/1999/02/22-rdf-syntax-ns#"
   xmlns:cc="http://creativecommons.org/ns#"
   xmlns:dc="http://purl.org/dc/elements/1.1/">
  <defs
     id="defs825">
    <pattern
       id="EMFhbasepattern"
       patternUnits="userSpaceOnUse"
       width="6"
       height="6"
       x="0"
       y="0" />
    <pattern
       id="EMFhbasepattern-9"
       patternUnits="userSpaceOnUse"
       width="6"
       height="6"
       x="0"
       y="0" />
    <pattern
       id="EMFhbasepattern-0"
       patternUnits="userSpaceOnUse"
       width="6"
       height="6"
       x="0"
       y="0" />
    <pattern
       id="EMFhbasepattern-7"
       patternUnits="userSpaceOnUse"
       width="6"
       height="6"
       x="0"
       y="0" />
    <pattern
       id="EMFhbasepattern-2"
       patternUnits="userSpaceOnUse"
       width="6"
       height="6"
       x="0"
       y="0" />
    <pattern
       id="EMFhbasepattern-98"
       patternUnits="userSpaceOnUse"
       width="6"
       height="6"
       x="0"
       y="0" />
    <pattern
       id="EMFhbasepattern-6"
       patternUnits="userSpaceOnUse"
       width="6"
       height="6"
       x="0"
       y="0" />
    <pattern
       id="EMFhbasepattern-01"
       patternUnits="userSpaceOnUse"
       width="6"
       height="6"
       x="0"
       y="0" />
    <pattern
       id="EMFhbasepattern-07"
       patternUnits="userSpaceOnUse"
       width="6"
       height="6"
       x="0"
       y="0" />
    <pattern
       id="EMFhbasepattern-8"
       patternUnits="userSpaceOnUse"
       width="6"
       height="6"
       x="0"
       y="0" />
    <pattern
       id="EMFhbasepattern-4"
       patternUnits="userSpaceOnUse"
       width="6"
       height="6"
       x="0"
       y="0" />
    <pattern
       id="EMFhbasepattern-40"
       patternUnits="userSpaceOnUse"
       width="6"
       height="6"
       x="0"
       y="0" />
    <pattern
       id="EMFhbasepattern-08"
       patternUnits="userSpaceOnUse"
       width="6"
       height="6"
       x="0"
       y="0" />
    <pattern
       id="EMFhbasepattern-04"
       patternUnits="userSpaceOnUse"
       width="6"
       height="6"
       x="0"
       y="0" />
    <pattern
       id="EMFhbasepattern-014"
       patternUnits="userSpaceOnUse"
       width="6"
       height="6"
       x="0"
       y="0" />
    <pattern
       id="EMFhbasepattern-27"
       patternUnits="userSpaceOnUse"
       width="6"
       height="6"
       x="0"
       y="0" />
    <pattern
       id="EMFhbasepattern-09"
       patternUnits="userSpaceOnUse"
       width="6"
       height="6"
       x="0"
       y="0" />
    <pattern
       id="EMFhbasepattern-5"
       patternUnits="userSpaceOnUse"
       width="6"
       height="6"
       x="0"
       y="0" />
    <pattern
       id="EMFhbasepattern-018"
       patternUnits="userSpaceOnUse"
       width="6"
       height="6"
       x="0"
       y="0" />
  </defs>
  <sodipodi:namedview
     id="base"
     pagecolor="#ffffff"
     bordercolor="#666666"
     borderopacity="1.0"
     inkscape:pageopacity="0.0"
     inkscape:pageshadow="2"
     inkscape:zoom="2.8284271"
     inkscape:cx="50.911688"
     inkscape:cy="54.800775"
     inkscape:document-units="pt"
     inkscape:current-layer="layer1"
     showgrid="false"
     units="pt"
     inkscape:window-width="1366"
     inkscape:window-height="705"
     inkscape:window-x="0"
     inkscape:window-y="31"
     inkscape:window-maximized="1"
     inkscape:pagecheckerboard="true"
     inkscape:showpageshadow="false"
     inkscape:object-paths="true"
     inkscape:snap-intersection-paths="true"
     inkscape:snap-smooth-nodes="true"
     inkscape:snap-midpoints="true"
     showguides="true"
     inkscape:snap-bbox="true"
     inkscape:bbox-nodes="true"
     inkscape:snap-nodes="false"
     inkscape:snap-global="true"
     inkscape:document-rotation="0">
    <inkscape:grid
       type="xygrid"
       id="grid1378" />
    <sodipodi:guide
       position="0.97013831,21.607643"
       orientation="78.000048,0"
       id="guide1380"
       inkscape:locked="false" />
    <sodipodi:guide
       position="0.97013831,0.97013129"
       orientation="0,78.000005"
       id="guide1382"
       inkscape:locked="false" />
    <sodipodi:guide
       position="21.607639,0.97013129"
       orientation="-78.000048,0"
       id="guide1384"
       inkscape:locked="false" />
    <sodipodi:guide
       position="21.607639,21.607643"
       orientation="0,-78.000005"
       id="guide1386"
       inkscape:locked="false" />
  </sodipodi:namedview>
  <metadata
     id="metadata828">
    <rdf:RDF>
      <cc:Work
         rdf:about="">
        <dc:format>image/svg+xml</dc:format>
        <dc:type
           rdf:resource="http://purl.org/dc/dcmitype/StillImage" />
      </cc:Work>
    </rdf:RDF>
  </metadata>
  <g
     inkscape:label="Icon"
     inkscape:groupmode="layer"
     id="layer1"
     transform="translate(0,-274.42223)">
    <path
       id="path877"
       style="color:#000000;fill:#000000;stroke-width:1;stroke-linecap:round;stroke-linejoin:round;stroke-miterlimit:1.5;-inkscape-stroke:none"
       d="m 21.406475,285.57399 c -0.0917,-0.49562 -0.469827,-0.89124 -0.962186,-1.0019 -0.657371,-0.14767 -1.218224,-0.16905 -1.852764,-0.16731 0.03787,-1.12045 0.0481,-2.19461 -0.315089,-3.45163 -0.105254,-0.26938 -0.266152,-0.54596 -0.398414,-0.79683 0.535983,0.0813 0.962954,0.19273 1.412685,0.29946 v 1.92177 c -1.55e-4,0.54831 0.450337,0.99929 0.998643,0.99929 0.548302,0 0.999295,-0.45097 0.999296,-0.99929 v -1.33327 c 0,-0.54433 -0.400118,-0.97462 -0.93745,-1.09498 -0.964886,-0.26104 -2.005421,-0.51747 -3.717897,-0.57094 -0.0161,-2.9e-4 -0.0322,5.6e-4 -0.04817,0.003 -0.02748,-10e-4 -0.05498,-0.003 -0.08268,-0.003 H 2.7434226 c -0.6132126,0 -1.1526379,0.41871 -1.3013618,1.01361 -0.051908,0.20109 -0.1002869,0.40356 -0.1477802,0.60544 -0.42322446,2.90798 -0.40974533,5.98124 -0.088537,8.74172 0.064691,0.55597 0.5451157,0.97139 1.1002009,0.96999 l 1.0975968,-0.003 c 0.2749147,0.77719 1.0181019,1.33782 1.8866169,1.33782 0.8687694,0 1.6125468,-0.56092 1.8872676,-1.33846 l 3.3507302,0.003 0.103511,0.41535 c 0.03669,0.14947 0.170939,0.25439 0.324852,0.25388 h 3.331851 c 0.153913,5e-4 0.288167,-0.10444 0.324851,-0.25388 l 0.103516,-0.41405 0.789671,-0.003 c 0.275107,0.77684 1.018353,1.33716 1.886616,1.33716 0.868554,0 1.611732,-0.56058 1.886617,-1.33782 l 0.992784,0.003 c 0.551751,0.001 1.050607,-0.38358 1.150981,-0.94004 0.146403,-0.81166 0.201348,-1.59667 0.179677,-2.36251 -0.04204,-0.61086 -0.07357,-1.22171 -0.196603,-1.83258 z m -18.6630524,-5.529 H 16.502445 c 0.356208,0 0.679843,0.20091 0.839147,0.51951 l 0.07421,0.14713 H 2.0494498 l 0.039712,-0.15755 c 0.075366,-0.30148 0.343514,-0.50909 0.6542608,-0.50909 z m 17.5016584,0.56117 c 0.218832,0.0336 0.37628,0.21673 0.37628,0.43812 v 1.33327 c 0,0.18804 -0.143978,0.33461 -0.332012,0.33461 -0.187965,0 -0.33467,-0.14665 -0.334617,-0.33461 l 0.0026,-1.81827 z m 0.174481,5.10064 c -0.477111,-0.009 -0.878212,0.3841 -0.878219,0.86128 v 0.2578 c 1.1e-5,0.47679 0.396869,0.87166 0.87365,0.86909 l 0.526665,-0.004 c 0.0016,0.63633 -0.05383,1.28647 -0.175122,1.95889 -0.03331,0.18468 -0.290711,0.39175 -0.492161,0.39125 l -0.881463,-0.003 c -0.0025,-1.09849 -0.900852,-1.99599 -1.999891,-1.99599 -1.099257,0 -1.998413,0.89785 -2.000544,1.99664 l -0.509086,0.003 0.06184,-0.24738 c 0.05184,-0.20964 -0.1063,-0.41248 -0.322249,-0.41336 h -0.334618 v -6.28612 c 4e-6,-0.57727 -0.473458,-1.05071 -1.050724,-1.05071 h -0.563771 c -0.577265,0 -1.050078,0.47344 -1.050074,1.05071 v 6.28612 H 10.6219 c -0.215967,8.7e-4 -0.374106,0.20375 -0.322248,0.4134 l 0.06119,0.24607 -3.0701467,-0.003 c -0.00283,-1.09818 -0.9017212,-1.99533 -2.0005428,-1.99533 -1.0988218,0 -1.9977049,0.89715 -2.0005429,1.99533 l -0.9836708,0.003 c -0.1981125,4.9e-4 -0.4157648,-0.1867 -0.4381274,-0.37888 -0.023701,-0.20369 -0.04465,-0.40944 -0.06445,-0.61651 l 0.3450334,-10e-4 c 0.4431766,-0.001 0.8093893,-0.36863 0.8092011,-0.81181 v -0.37887 c 0,-0.17753 -0.058917,-0.34249 -0.1581945,-0.47655 0.099183,-0.13481 0.1581327,-0.30018 0.1581945,-0.47783 v -0.37889 c 4e-7,-0.44371 -0.3707081,-0.81066 -0.8144091,-0.80725 l -0.4876037,0.005 c 0.00683,-1.44673 0.1030621,-2.9138 0.2955568,-4.3396 H 17.656671 c 0.29947,1.1666 0.349043,2.18337 0.300113,3.31623 -0.0094,0.1938 0.147818,0.35485 0.341778,0.34958 0.751119,-0.0218 1.277496,0.0152 1.99794,0.17708 0.157852,0.0355 0.426355,0.32637 0.455704,0.485 z M 3.2896171,282.04554 c -0.3646028,0 -0.6666357,0.30202 -0.6666307,0.66662 v 1.33132 c -4.9e-6,0.3646 0.3020278,0.66663 0.6666307,0.66662 h 0.9992947 c 0.3639,0 0.6706241,-0.29224 0.6737919,-0.66207 0.00403,-0.47097 -0.013842,-0.89097 -0.011716,-1.33587 0.00174,-0.3595 -0.2975363,-0.66662 -0.6620736,-0.66662 z m 3.0017908,0 c -0.364603,0 -0.6692395,0.30202 -0.6692349,0.66662 v 1.33132 c -4.6e-6,0.3646 0.3046319,0.66663 0.6692349,0.66662 h 0.9966907 c 0.3639,0 0.6712751,-0.29224 0.6744429,-0.66207 0.00403,-0.47097 -0.014492,-0.89097 -0.012371,-1.33587 0.00174,-0.3595 -0.2975362,-0.66662 -0.6620736,-0.66662 z m 2.9998377,0 c -0.3646029,0 -0.6672865,0.30202 -0.6672816,0.66662 v 1.33132 c -4.9e-6,0.3646 0.3026787,0.66663 0.6672816,0.66662 H 10.28989 c 0.363899,0 0.671274,-0.29224 0.674442,-0.66207 0.004,-0.47097 -0.0171,-0.89097 -0.01497,-1.33587 0.0017,-0.3595 -0.294933,-0.66662 -0.659469,-0.66662 z m 6.3284334,0 c -0.363044,0 -0.664681,0.30098 -0.664677,0.66403 v 1.3365 c -4e-6,0.36305 0.301633,0.66404 0.664677,0.66403 h 1.005805 c 0.360917,0 0.665448,-0.25524 0.706343,-0.62496 0.05119,-0.46225 0.04889,-0.90156 -0.0045,-1.41203 -0.03841,-0.36685 -0.340501,-0.62757 -0.701785,-0.62757 z M 4.2889102,284.04347 H 3.2896171 v -1.33131 h 0.9992931 z m 3.0089675,-0.003 -1.0064568,0.003 -0.00197,-1.33131 h 1.0084229 z m 2.9991693,0 -1.0058041,0.003 -1.6e-6,-1.33131 h 0.9914827 z m 2.376828,-1.32871 h 0.563772 c 0.216993,0 0.386048,0.16711 0.386047,0.38409 v 6.28612 h -1.333261 v -6.28612 c -2e-6,-0.21698 0.16645,-0.38409 0.383442,-0.38409 z m 3.95161,1.3313 h -1.003852 v -1.3313 h 1.003852 z m -11.9895866,1.33327 c -0.5552036,0 -1.011668,0.45841 -1.0065329,1.01275 0.00514,0.55435 0.4654228,0.99806 1.0136939,0.9878 h 5.2998437 c 0.5552039,0 1.0136209,-0.45583 1.0084859,-1.01155 -0.0051,-0.55574 -0.464772,-0.99946 -1.0130431,-0.98919 z m 11.3327206,0 c -0.5552,0 -1.013621,0.45841 -1.008455,1.01273 0.0052,0.55433 0.465398,0.99808 1.013663,0.98782 h 1.02859 c 0.555202,0 1.011017,-0.45581 1.011014,-1.01102 v -6.7e-4 -6.7e-4 -6.6e-4 -6.6e-4 -6.7e-4 -6.7e-4 -6.6e-4 -6.7e-4 -6.7e-4 -6.7e-4 -6.6e-4 -6.7e-4 c -0.01033,-0.54824 -0.470561,-0.99197 -1.018825,-0.98172 z m -6.0179031,0.66728 c 0.1866751,-0.004 0.3309621,0.1382 0.3365711,0.3242 -0.0021,0.19291 -0.150842,0.34243 -0.3443829,0.34243 H 4.6280854 c -0.1859679,0.004 -0.3279632,-0.1399 -0.3346171,-0.32486 0.0042,-0.1909 0.1502655,-0.34177 0.3424295,-0.34177 z m 7.0562561,0 c 0.18598,-0.004 0.330559,0.1392 0.337221,0.3242 -0.0021,0.19292 -0.148236,0.34243 -0.341778,0.34243 H 15.96146 c -0.185976,0.004 -0.327949,-0.13986 -0.334618,-0.32486 0.004,-0.18494 0.140944,-0.33273 0.324202,-0.34177 z m 3.400209,0.32942 0.443336,0.0101 0.05859,0.64254 -0.499322,0.003 c -0.115244,6.3e-4 -0.201809,-0.0865 -0.201812,-0.20182 v -0.25844 c 1e-6,-0.11262 0.08666,-0.19674 0.199208,-0.19465 z m -18.7327102,0.67705 c -0.0075,-0.22061 -0.012396,-0.44238 -0.015624,-0.66468 l 0.489556,-0.005 c 0.081631,-6.3e-4 0.1425704,0.059 0.1425704,0.14061 v 0.37889 c -2.85e-5,0.0819 -0.059361,0.1428 -0.1399663,0.14713 z m 0.4810928,0.66401 c 0.077922,0.003 0.1354094,0.0607 0.1354094,0.13997 v 0.37888 c 3.55e-5,0.0836 -0.061466,0.14487 -0.1451744,0.14518 l -0.3984159,0.003 -0.043617,-0.66272 z m 3.1254426,1.00577 c 0.7494421,-0.009 1.3430677,0.58389 1.343066,1.32419 -4e-6,0.74028 -0.5936279,1.33391 -1.3339122,1.33391 -0.7402843,0 -1.3332575,-0.59363 -1.3332612,-1.33391 -2e-6,-0.72873 0.5746652,-1.31512 1.3241074,-1.32419 z m 12.1120148,0 c 0.749768,-0.009 1.333264,0.58389 1.333262,1.32419 -4e-6,0.74028 -0.592979,1.33391 -1.333262,1.33391 -0.740285,0 -1.333909,-0.59363 -1.333913,-1.33391 -2e-6,-0.72873 0.584145,-1.31512 1.333913,-1.32419 z m -12.7694915,1.32419 c 4.2e-6,0.36421 0.3024118,0.66663 0.6666305,0.66663 0.3642183,0 0.666626,-0.30242 0.6666307,-0.66663 8.9e-6,-0.36423 -0.3024027,-0.66664 -0.6712711,-0.66201 -0.3688683,0.005 -0.6619996,0.30348 -0.6619901,0.66201 z m 12.1022105,0 c 3e-6,0.36421 0.303062,0.66663 0.667281,0.66663 0.364218,0 0.666626,-0.30242 0.666631,-0.66663 8e-6,-0.36423 -0.297437,-0.66664 -0.666631,-0.66201 -0.369194,0.005 -0.66729,0.30348 -0.667281,0.66201 z m -5.675475,0.005 h 3.146965 l -0.167308,0.66142 H 11.21497 Z"
       sodipodi:nodetypes="cccccccssscccssccsccsccccccccsccsccssccccscsssccccscccsccsccccccssccccccsccscccsccscccccccccscccsccssscccsccssscccsscssscccscssscccccccccccccccssccccsccccccccsccccccsscccccccccccccccccccccccccccccccccsccccsccccsccccccsssccsssccscccssscsccccc" />
  </g>
</svg>
