<?xml version="1.0" encoding="UTF-8" standalone="no"?>
<svg
   width="14"
   height="28"
   viewBox="0 0 14 28"
   fill="none"
   version="1.1"
   id="svg4"
   sodipodi:docname="face.svg"
   inkscape:version="1.1.1 (3bf5ae0d25, 2021-09-20)"
   xmlns:inkscape="http://www.inkscape.org/namespaces/inkscape"
   xmlns:sodipodi="http://sodipodi.sourceforge.net/DTD/sodipodi-0.dtd"
   xmlns="http://www.w3.org/2000/svg"
   xmlns:svg="http://www.w3.org/2000/svg">
  <defs
     id="defs8" />
  <sodipodi:namedview
     id="namedview6"
     pagecolor="#ffffff"
     bordercolor="#666666"
     borderopacity="1.0"
     inkscape:pageshadow="2"
     inkscape:pageopacity="0.0"
     inkscape:pagecheckerboard="0"
     showgrid="false"
     inkscape:zoom="21.466667"
     inkscape:cx="14.976708"
     inkscape:cy="14.976708"
     inkscape:window-width="1920"
     inkscape:window-height="1017"
     inkscape:window-x="-8"
     inkscape:window-y="-8"
     inkscape:window-maximized="1"
     inkscape:current-layer="svg4" />
  <path
     d="m 12.846655,9.5808429 c 0.0121,-0.1179 -0.0804,-0.2204 -0.199,-0.2204 H 8.8237553 v -2.65321 c 0,-0.99642 0.6604,-1.22872 1.1256,-1.22872 0.3822997,0 2.0724997,0 2.6558997,0 0.1105,0 0.1989,-0.08955 0.1989,-0.2 v -3.98122 c 0,-0.11015 -0.0891,-0.19957 -0.1992,-0.2 l -3.7324997,-0.01456 c -4.3646,0 -5.3578,3.26707 -5.3578,5.3578 v 2.91991 h -2.32412 c -0.11046,0 -0.20000002,0.0896 -0.20000002,0.2 v 4.1138001 c 0,0.1105 0.08954,0.2 0.20000002,0.2 h 2.32412 c 0,5.219 0,11.4015 0,12.575 0,0.1105 0.0895,0.1975 0.2,0.1975 h 4.9091 c 0.1105,0 0.2,-0.0872 0.2,-0.1976 0,-1.1798 0,-7.4154 0,-12.5749 h 3.4018997 c 0.1026,0 0.1885,-0.0776 0.199,-0.1796 z"
     stroke="#17c1bc"
     stroke-width="2"
     id="path2" />
</svg>
